<svg width="50" height="50" viewBox="0 0 50 50" fill="none" xmlns="http://www.w3.org/2000/svg">
<path d="M25.0023 0C18.2127 0 17.3606 0.0296883 14.6939 0.151044C12.0324 0.27292 10.2157 0.694278 8.62613 1.31251C6.98184 1.95106 5.58704 2.80524 4.19744 4.19536C2.8068 5.58495 1.95262 6.97976 1.31199 8.62353C0.692194 10.2136 0.270315 12.0309 0.150522 14.6913C0.0312501 17.358 0 18.2106 0 25.0003C0 31.7899 0.0302091 32.6394 0.151044 35.3061C0.273441 37.9676 0.694799 39.7843 1.31251 41.3739C1.95158 43.0182 2.80576 44.413 4.19588 45.8026C5.58495 47.1932 6.97976 48.0495 8.62301 48.688C10.2136 49.3062 12.0309 49.7276 14.6918 49.8495C17.3585 49.9708 18.2101 50.0005 24.9992 50.0005C31.7894 50.0005 32.6389 49.9708 35.3056 49.8495C37.9671 49.7276 39.7858 49.3062 41.3765 48.688C43.0202 48.0495 44.413 47.1932 45.802 45.8026C47.1927 44.413 48.0469 43.0182 48.6875 41.3744C49.3021 39.7843 49.724 37.9671 49.849 35.3066C49.9687 32.6399 50 31.7899 50 25.0003C50 18.2106 49.9687 17.3585 49.849 14.6918C49.724 12.0303 49.3021 10.2136 48.6875 8.62405C48.0469 6.97976 47.1927 5.58495 45.802 4.19536C44.4114 2.80472 43.0208 1.95054 41.3749 1.31251C39.7811 0.694278 37.9634 0.27292 35.3019 0.151044C32.6352 0.0296883 31.7863 0 24.9945 0H25.0023ZM22.7596 4.50525C23.4252 4.50421 24.168 4.50525 25.0023 4.50525C31.6774 4.50525 32.4686 4.52921 35.1045 4.64901C37.5421 4.76047 38.865 5.16776 39.7462 5.50995C40.9129 5.96308 41.7447 6.50475 42.6192 7.37976C43.4942 8.25477 44.0359 9.08811 44.49 10.2548C44.8322 11.135 45.2401 12.4579 45.351 14.8955C45.4708 17.5309 45.4968 18.3226 45.4968 24.9945C45.4968 31.6665 45.4708 32.4581 45.351 35.0936C45.2395 37.5311 44.8322 38.854 44.49 39.7343C44.0369 40.9009 43.4942 41.7317 42.6192 42.6062C41.7442 43.4812 40.9134 44.0229 39.7462 44.476C38.866 44.8197 37.5421 45.226 35.1045 45.3374C32.4691 45.4572 31.6774 45.4833 25.0023 45.4833C18.3268 45.4833 17.5356 45.4572 14.9002 45.3374C12.4626 45.2249 11.1397 44.8177 10.2579 44.4755C9.09124 44.0223 8.2579 43.4807 7.38289 42.6057C6.50788 41.7306 5.96621 40.8994 5.51204 39.7322C5.16985 38.852 4.76203 37.529 4.65109 35.0915C4.5313 32.4561 4.50734 31.6644 4.50734 24.9883C4.50734 18.3122 4.5313 17.5247 4.65109 14.8892C4.76255 12.4517 5.16985 11.1288 5.51204 10.2475C5.96517 9.08082 6.50788 8.24748 7.38289 7.37247C8.2579 6.49746 9.09124 5.95579 10.2579 5.50162C11.1392 5.15787 12.4626 4.75161 14.9002 4.63963C17.2064 4.53546 18.1002 4.50421 22.7596 4.49901V4.50525ZM38.3473 8.65634C36.691 8.65634 35.3472 9.99854 35.3472 11.6553C35.3472 13.3116 36.691 14.6554 38.3473 14.6554C40.0035 14.6554 41.3473 13.3116 41.3473 11.6553C41.3473 9.99906 40.0035 8.6553 38.3473 8.6553V8.65634ZM25.0023 12.1616C17.9122 12.1616 12.1637 17.9101 12.1637 25.0003C12.1637 32.0904 17.9122 37.8363 25.0023 37.8363C32.0925 37.8363 37.8389 32.0904 37.8389 25.0003C37.8389 17.9101 32.092 12.1616 25.0018 12.1616H25.0023ZM25.0023 16.6668C29.6045 16.6668 33.3358 20.3976 33.3358 25.0003C33.3358 29.6024 29.6045 33.3337 25.0023 33.3337C20.3997 33.3337 16.6689 29.6024 16.6689 25.0003C16.6689 20.3976 20.3997 16.6668 25.0023 16.6668V16.6668Z" fill="#848181"/>
</svg>
