<svg width="50" height="50" viewBox="0 0 50 50" fill="none" xmlns="http://www.w3.org/2000/svg">
<path d="M0 3.58168C0 1.6041 1.64379 0 3.67161 0H46.3284C48.3561 0 50 1.60411 50 3.58169V46.4183C50 48.3966 48.3561 50 46.3284 50L3.67161 50C1.64379 50 0 48.3966 0 46.4183V3.58168ZM15.4481 41.8552V19.2774H7.94362V41.8552H15.4481ZM11.6958 16.1948C14.3128 16.1948 15.9416 14.461 15.9416 12.2944C15.8928 10.079 14.3128 8.39335 11.7455 8.39335C9.17841 8.39335 7.5 10.079 7.5 12.2944C7.5 14.461 9.12849 16.1948 11.6469 16.1948H11.6958ZM27.0356 41.8552V29.2468C27.0356 28.572 27.0844 27.8979 27.2825 27.4155C27.825 26.0673 29.0598 24.671 31.133 24.671C33.8485 24.671 34.9347 26.7414 34.9347 29.7766V41.8552H42.4385V28.9094C42.4385 21.9745 38.7362 18.7476 33.7989 18.7476C29.818 18.7476 28.0331 20.9355 27.0358 22.474V22.5517H26.9857C27.0022 22.526 27.0189 22.5001 27.0358 22.474V19.2774H19.5315C19.6299 21.3959 19.5315 41.8552 19.5315 41.8552H27.0356Z" fill="#848181"/>
</svg>
